<svg width="654" height="455" viewBox="0 0 654 455" fill="none" xmlns="http://www.w3.org/2000/svg">
<path d="M27.031 389.449C26.6187 394.402 30.3001 398.752 35.2535 399.165C40.207 399.577 44.5567 395.895 44.969 390.942L27.031 389.449ZM40.031 233.254L27.031 389.449L44.969 390.942L57.969 234.746L40.031 233.254Z" fill="#EDE5DE"/>
<path d="M76.0001 391C76.2547 395.964 80.4852 399.782 85.4492 399.527C90.4133 399.273 94.231 395.042 93.9765 390.078L76.0001 391ZM68.0001 235L76.0001 391L93.9765 390.078L85.9765 234.078L68.0001 235Z" fill="#EDE5DE"/>
<mask id="path-3-inside-1_102_30" fill="white">
<path d="M94 389.5C94 401.037 90.4705 412.101 84.1881 420.259C77.9056 428.417 69.3848 433 60.5 433C51.6152 433 43.0944 428.417 36.8119 420.259C30.5295 412.101 27 401.037 27 389.5L44.9912 389.5C44.9912 394.841 46.6252 399.963 49.5336 403.74C52.4421 407.517 56.3868 409.638 60.5 409.638C64.6132 409.638 68.5579 407.517 71.4664 403.74C74.3748 399.963 76.0088 394.841 76.0088 389.5H94Z"/>
</mask>
<path d="M94 389.5C94 401.037 90.4705 412.101 84.1881 420.259C77.9056 428.417 69.3848 433 60.5 433C51.6152 433 43.0944 428.417 36.8119 420.259C30.5295 412.101 27 401.037 27 389.5L44.9912 389.5C44.9912 394.841 46.6252 399.963 49.5336 403.74C52.4421 407.517 56.3868 409.638 60.5 409.638C64.6132 409.638 68.5579 407.517 71.4664 403.74C74.3748 399.963 76.0088 394.841 76.0088 389.5H94Z" fill="#EDE5DE" stroke="#EDE5DE" stroke-width="36" mask="url(#path-3-inside-1_102_30)"/>
<line x1="49" y1="235" x2="77" y2="235" stroke="#EDE5DE" stroke-width="18" stroke-linecap="round" stroke-linejoin="round"/>
<line x1="63" y1="161" x2="63" y2="238" stroke="#EDE5DE" stroke-width="18"/>
<line x1="26" y1="126" x2="103" y2="126" stroke="#EDE5DE" stroke-width="18"/>
<path d="M56 45C56 40.0294 51.9706 36 47 36C42.0294 36 38 40.0294 38 45H56ZM56 122L56 45H38L38 122H56Z" fill="#EDE5DE"/>
<path d="M84 45C84 40.0294 79.9706 36 75 36C70.0294 36 66 40.0294 66 45H84ZM84 122V45H66V122H84Z" fill="#EDE5DE"/>
<path d="M112 39C112 34.0294 107.971 30 103 30C98.0294 30 94 34.0294 94 39H112ZM112 134V39H94V134H112Z" fill="#EDE5DE"/>
<path d="M28 39C28 34.0294 23.9706 30 19 30C14.0294 30 10 34.0294 10 39H28ZM28 134L28 39H10L10 134H28Z" fill="#EDE5DE"/>
<mask id="path-11-inside-2_102_30" fill="white">
<path d="M112 133.5C112 138.687 110.681 143.824 108.118 148.616C105.555 153.408 101.798 157.763 97.0624 161.431C92.3267 165.099 86.7045 168.008 80.5169 169.993C74.3292 171.978 67.6974 173 61 173C54.3026 173 47.6707 171.978 41.4831 169.993C35.2955 168.008 29.6733 165.099 24.9376 161.431C20.2018 157.763 16.4451 153.408 13.8821 148.616C11.3192 143.824 10 138.687 10 133.5L33.7436 133.5C33.7436 136.272 34.4486 139.017 35.8184 141.579C37.1881 144.14 39.1958 146.467 41.7268 148.427C44.2578 150.388 47.2625 151.943 50.5694 153.003C53.8763 154.064 57.4206 154.61 61 154.61C64.5794 154.61 68.1237 154.064 71.4306 153.003C74.7375 151.943 77.7422 150.388 80.2732 148.427C82.8042 146.467 84.8119 144.14 86.1816 141.579C87.5514 139.017 88.2564 136.272 88.2564 133.5H112Z"/>
</mask>
<path d="M112 133.5C112 138.687 110.681 143.824 108.118 148.616C105.555 153.408 101.798 157.763 97.0624 161.431C92.3267 165.099 86.7045 168.008 80.5169 169.993C74.3292 171.978 67.6974 173 61 173C54.3026 173 47.6707 171.978 41.4831 169.993C35.2955 168.008 29.6733 165.099 24.9376 161.431C20.2018 157.763 16.4451 153.408 13.8821 148.616C11.3192 143.824 10 138.687 10 133.5L33.7436 133.5C33.7436 136.272 34.4486 139.017 35.8184 141.579C37.1881 144.14 39.1958 146.467 41.7268 148.427C44.2578 150.388 47.2625 151.943 50.5694 153.003C53.8763 154.064 57.4206 154.61 61 154.61C64.5794 154.61 68.1237 154.064 71.4306 153.003C74.7375 151.943 77.7422 150.388 80.2732 148.427C82.8042 146.467 84.8119 144.14 86.1816 141.579C87.5514 139.017 88.2564 136.272 88.2564 133.5H112Z" fill="#EDE5DE" stroke="#EDE5DE" stroke-width="36" mask="url(#path-11-inside-2_102_30)"/>
<path d="M622.969 258.747C623.382 253.794 619.701 249.444 614.747 249.031C609.794 248.618 605.444 252.299 605.031 257.253L622.969 258.747ZM605.031 257.253L593.031 401.253L610.969 402.747L622.969 258.747L605.031 257.253Z" fill="#EDE5DE"/>
<path d="M635.469 220.502L626.478 220.897L626.48 220.933L626.482 220.968L635.469 220.502ZM631.53 130.991L640.522 130.595L640.52 130.555L640.518 130.514L631.53 130.991ZM633.845 37.3058C632.91 32.4241 628.194 29.225 623.312 30.1605C618.43 31.096 615.231 35.8118 616.167 40.6935L633.845 37.3058ZM629.102 60.3758L638.089 59.8875L638.056 59.2797L637.941 58.6819L629.102 60.3758ZM630.345 83.2501L639.345 83.2709L639.346 83.0162L639.332 82.7619L630.345 83.2501ZM630.289 107.619L621.289 107.599L621.288 107.848L621.301 108.097L630.289 107.619ZM626.482 220.968L635.909 402.472L653.884 401.539L644.457 220.035L626.482 220.968ZM622.539 131.387L626.478 220.897L644.461 220.106L640.522 130.595L622.539 131.387ZM616.167 40.6935L620.263 62.0696L637.941 58.6819L633.845 37.3058L616.167 40.6935ZM620.116 60.864L621.358 83.7384L639.332 82.7619L638.089 59.8875L620.116 60.864ZM621.345 83.2293L621.289 107.599L639.289 107.64L639.345 83.2709L621.345 83.2293ZM621.301 108.097L622.543 131.469L640.518 130.514L639.276 107.142L621.301 108.097Z" fill="#EDE5DE"/>
<mask id="path-14-inside-3_102_30" fill="white">
<path d="M654 400.5C654 404.637 653.211 408.733 651.678 412.555C650.146 416.376 647.899 419.849 645.067 422.774C642.235 425.699 638.872 428.019 635.172 429.602C631.471 431.185 627.505 432 623.5 432C619.495 432 615.529 431.185 611.828 429.602C608.128 428.019 604.765 425.699 601.933 422.774C599.101 419.849 596.854 416.376 595.322 412.555C593.789 408.733 593 404.637 593 400.5H611.045C611.045 402.189 611.367 403.862 611.993 405.422C612.619 406.983 613.537 408.401 614.693 409.596C615.85 410.79 617.223 411.737 618.734 412.384C620.245 413.03 621.864 413.363 623.5 413.363C625.136 413.363 626.755 413.03 628.266 412.384C629.777 411.737 631.15 410.79 632.307 409.596C633.463 408.401 634.381 406.983 635.007 405.422C635.633 403.862 635.955 402.189 635.955 400.5H654Z"/>
</mask>
<path d="M654 400.5C654 404.637 653.211 408.733 651.678 412.555C650.146 416.376 647.899 419.849 645.067 422.774C642.235 425.699 638.872 428.019 635.172 429.602C631.471 431.185 627.505 432 623.5 432C619.495 432 615.529 431.185 611.828 429.602C608.128 428.019 604.765 425.699 601.933 422.774C599.101 419.849 596.854 416.376 595.322 412.555C593.789 408.733 593 404.637 593 400.5H611.045C611.045 402.189 611.367 403.862 611.993 405.422C612.619 406.983 613.537 408.401 614.693 409.596C615.85 410.79 617.223 411.737 618.734 412.384C620.245 413.03 621.864 413.363 623.5 413.363C625.136 413.363 626.755 413.03 628.266 412.384C629.777 411.737 631.15 410.79 632.307 409.596C633.463 408.401 634.381 406.983 635.007 405.422C635.633 403.862 635.955 402.189 635.955 400.5H654Z" fill="#EDE5DE" stroke="#EDE5DE" stroke-width="36" mask="url(#path-14-inside-3_102_30)"/>
<path d="M578 256H614" stroke="#EDE5DE" stroke-width="18" stroke-linecap="round"/>
<path d="M624 39L619.401 42.4408L617.367 45.4041L614.843 51.342L609.287 64.2068L600.75 90.4519L587.803 144.958L582.86 170.733L578.952 197.508L577.981 204.947L577.505 209.907L577.611 223.807L577.656 229.763L577.709 236.713L578.371 256.077" stroke="#EDE5DE" stroke-width="18" stroke-linecap="round"/>
<circle cx="330.5" cy="231.5" r="191.5" stroke="#EDE5DE" stroke-width="18"/>
<path d="M465 231C465 305.529 404.364 366 329.5 366C254.636 366 194 305.529 194 231C194 156.471 254.636 96 329.5 96C404.364 96 465 156.471 465 231Z" stroke="#EDE5DE" stroke-width="18"/>
<path d="M265.379 116C265.058 117.995 264.43 120.218 265.409 122.135C266.413 124.1 268.786 125.092 270.709 125.853C275.808 127.869 281.644 128.237 286.398 131.142C288.861 132.647 290.324 135.938 291.818 138.274C292.723 139.69 293.807 141.056 294.347 142.672C295.313 145.559 295.683 148.769 295.973 151.784C296.215 154.294 296.245 158.125 293.444 159.4C290.247 160.856 285.579 160.273 282.408 159.234C278.39 157.917 275.048 155.299 271.206 153.627C269.451 152.864 267.539 152.78 265.65 152.736C258.804 152.576 249.984 154.381 247.251 161.485C246.204 164.209 245.805 168.446 243.578 170.507C240.957 172.932 236.615 173.565 235.282 177.277C234.311 179.98 234.489 183.266 233.942 186.102C233.261 189.631 232.392 194.131 233.611 197.632C234.562 200.365 237.163 201.798 239.332 203.435C241.609 205.154 242.651 207.369 244.24 209.661C245.4 211.334 246.464 212.958 248.576 213.318C251.53 213.821 254.636 213.712 257.55 213.046C260.186 212.443 262.721 211.921 265.439 211.807C267.421 211.723 268.883 212.816 270.318 214.103C272.045 215.653 274.189 217.98 274.955 220.239C275.761 222.615 275.565 225.593 275.979 228.082C277.053 234.553 281.246 241.239 284.982 246.502C286.699 248.92 287.741 251.559 288.942 254.255C290.624 258.03 292.26 261.674 293.203 265.724C294.454 271.094 295.263 275.853 295.19 281.319C295.15 284.338 294.594 287.179 294.167 290.144C293.978 291.454 293.834 293.022 295.386 293.423C297.911 294.076 301.654 294.288 304.149 293.454C308.058 292.146 309.883 287.843 310.849 284.16C311.623 281.207 311.971 278.051 313.845 275.532C315.264 273.624 317.097 272.191 319.039 270.877C323.015 268.188 324.849 263.189 326.899 259.075C328.077 256.711 329.65 254.659 330.934 252.366C332.498 249.57 332.861 247.07 332.861 243.933C332.861 240.687 332.734 237.414 332.861 234.171C333.022 230.077 335.801 226.912 338.07 223.714C342.574 217.367 345.529 210.307 350.627 204.372C352.398 202.311 353.773 200.553 354.421 197.844C354.735 196.535 355.193 194.554 354.241 193.371C352.932 191.744 350.128 192.077 348.459 192.827C345.781 194.029 342.95 195.634 339.907 195.562C336.91 195.49 333.754 193.621 331.867 191.376C330.054 189.219 329.44 186.483 328.314 183.956C326.655 180.233 324.698 177.021 323.933 172.955C323.219 169.166 322.683 165.398 322.879 161.531C323.131 156.557 327.34 150.956 332.364 150.001C341.076 148.344 350.04 147.66 358.818 146.434C362.434 145.93 366.015 145.204 369.628 144.682C371.623 144.393 373.533 144.082 375.35 143.14C379.478 140.998 383.627 137.296 386.341 133.529C388.723 130.222 390.19 126.318 394.155 124.538C397.269 123.14 400.348 123.292 403.745 123.208C405.426 123.167 410.143 123.464 408.744 122.528" stroke="#EDE5DE" stroke-width="18" stroke-linecap="round"/>
<path d="M459 203.365C457.729 203.254 456.53 202.694 455.364 202.216C451.829 200.766 448.339 198.948 444.637 197.952C437.656 196.072 429.029 197.21 422.177 199.343C418.775 200.402 416.874 203.047 416.438 206.511C416.101 209.192 416.884 212.384 415.822 214.919C414.77 217.432 412.457 217.184 410.143 217.641C408.811 217.904 405.86 218.414 404.915 219.471C401.921 222.82 402.752 229.179 402.752 233.247C402.752 237.578 402.838 241.695 403.683 245.95C404.148 248.287 405.038 250.684 405.186 253.058C405.349 255.683 401.708 257.868 400.198 259.712C398.935 261.253 397.556 262.313 397.208 264.339C396.76 266.947 397.259 268.442 397.974 270.963C399.102 274.936 400.645 279.158 401.069 283.272C401.247 285 401.94 286.914 401.61 288.656C401.183 290.913 397.473 291.208 395.706 291.272C392.741 291.379 390.429 291.125 387.818 289.624C384.691 287.825 381.246 285.714 377.663 285.026C372.826 284.099 368.122 283.661 363.721 286.236C361.55 287.507 360.418 290.487 359.544 292.769C358.409 295.735 359.002 298.482 361.783 300.088C363.821 301.265 365.933 301.077 368.078 301.812C370.507 302.646 370.915 306.551 371.262 308.708C371.676 311.274 371.108 313.889 371.683 316.451C372.154 318.55 373.22 320.39 374.252 322.243C376.803 326.82 378.391 331.945 381.418 336.231C383.783 339.578 386.715 342.61 388.96 346" stroke="#EDE5DE" stroke-width="18" stroke-linecap="round"/>
</svg>
